<?xml version="1.0" encoding="UTF-8"?>
<svg xmlns="http://www.w3.org/2000/svg" width="254.578" height="26.664" viewBox="0 0 254.58 26.67">
  <defs>
    <style>
      .cls-1 {
        fill: #6d6e71;
      }

      .cls-1, .cls-2, .cls-3, .cls-4, .cls-5 {
        stroke-width: 0px;
      }

      .cls-3 {
        fill: none;
      }

      .cls-4 {
        fill: #fff;
      }

      .cls-5 {
        fill: #bf0c3f;
      }
    </style>
  </defs>
  <g id="_기존" data-name="기존">
    <path id="_패스_6822" data-name="패스 6822" class="cls-1" d="m101.12,9.1h-3.21v-4.79h-3.09v17.99h2.7c.27-1.42.4-2.86.39-4.31v-6.31h3.21v-2.58Zm-18.69-4.46v2.53h3.67v1.22c0,3.22-.66,5.25-4,6.71l1.26,2.24c1.93-.66,3.54-2.01,4.54-3.78.96,1.66,2.46,2.93,4.25,3.61l1.51-2.62c-3.25-1.22-4.36-3.11-4.36-6.17v-1.2h3.57v-2.53h-10.42Zm-1.83,15.06h-9.5c-.25,0-.33-.06-.33-.33v-3.76h-3.23v5.07c0,1.1.56,1.62,1.66,1.62h11.39v-2.6Zm-.33-15.39h-3.22v3.66h-3.03v2.64h3.03v6.69h2.84c.25-1.16.38-2.34.39-3.53V4.31Zm-16.01.35v2.54h3.51v.65c0,2.62-1.06,4.01-3.92,4.92l1.08,2.43c1.94-.36,3.64-1.52,4.69-3.2.99,1.59,2.59,2.7,4.42,3.09l1.37-2.78c-2.49-.54-4.29-1.89-4.29-4.48v-.64h3.46v-2.54h-10.34Z"/>
    <path id="_패스_6823" data-name="패스 6823" class="cls-1" d="m37.81,22.05h7.37v-3.38h-8.33V4.68h-4.02v17.37h4.97Z"/>
    <path id="_패스_6824" data-name="패스 6824" class="cls-1" d="m53.95,15.43h3.27v3.04c-.94.31-1.92.46-2.9.46-3.61,0-4.82-1.84-4.82-5.56s1.15-5.65,4.76-5.65c1.59-.13,3.14.56,4.11,1.83l2.5-2.29c-1.53-2.18-4.19-2.84-6.69-2.84-5.62,0-8.58,3.07-8.58,8.91s2.67,8.97,8.55,8.97c2.37.07,4.71-.51,6.77-1.69v-8.42h-6.97v3.24Z"/>
    <path id="_사각형_1290" data-name="사각형 1290" class="cls-3" d="m0,.05h198.8v26.61H0V.05Z"/>
    <g id="_그룹_2177" data-name="그룹 2177">
      <path id="_사각형_1312" data-name="사각형 1312" class="cls-2" d="m114.2,4.31h.73v18.15h-.73V4.31Z"/>
      <path id="_사각형_1313" data-name="사각형 1313" class="cls-3" d="m0,.05h198.8v26.61H0V.05Z"/>
    </g>
    <g id="_그룹_2183" data-name="그룹 2183">
      <path id="_패스_6825" data-name="패스 6825" class="cls-1" d="m138.18,12.72c1.72.85,2.97,1.66,2.97,4.16,0,3.4-2.26,5.13-5.87,5.13h-7.28V4.71h6.9c3.73,0,5.82,1.17,5.75,4.35.03,1.62-.96,3.08-2.47,3.66m-6.82-5.34v4.36h3.39c1.14.16,2.19-.63,2.35-1.77.02-.13.02-.25.02-.38,0-1.79-1.07-2.13-2.39-2.2h-3.37Zm0,6.93v4.94h3.39c1.74.08,2.79-.58,2.74-2.46-.05-1.94-1.13-2.54-2.72-2.48h-3.41Z"/>
      <path id="_패스_6826" data-name="패스 6826" class="cls-1" d="m143.53,4.71h10.97v2.78h-7.51v4.25h7.22v2.67h-7.22v4.84h7.81v2.77h-11.27V4.71Z"/>
      <path id="_패스_6827" data-name="패스 6827" class="cls-1" d="m157.86,18.29c1.46.77,3.09,1.18,4.75,1.19,2.41,0,3.34-.86,3.34-1.98-.07-.8-.59-1.48-1.34-1.77-1.36-.67-2.96-1.12-4.46-1.72-2.17-1.05-3.29-2.03-3.29-4.63,0-3.08,2.31-4.94,6.59-4.94,1.98-.04,3.93.4,5.7,1.29l-1.17,2.58c-1.38-.75-2.94-1.14-4.51-1.12-2.22,0-3.13.77-3.13,1.91-.03.5.18.98.55,1.31.34.27.71.49,1.1.67,1.15.5,2.86,1.05,4.27,1.7,1.69.81,3.1,1.81,3.1,4.53,0,3.08-2.53,4.99-6.71,4.99-2.11,0-4.19-.49-6.08-1.41l1.29-2.61Z"/>
      <path id="_패스_6828" data-name="패스 6828" class="cls-1" d="m170.83,4.71h13.64v2.77h-5.04v14.53h-3.46V7.48h-5.14v-2.77Z"/>
      <path id="_패스_6829" data-name="패스 6829" class="cls-1" d="m193.58,18.29c1.47.77,3.09,1.18,4.75,1.19,2.41,0,3.34-.86,3.34-1.98-.07-.8-.59-1.48-1.34-1.77-1.36-.67-2.96-1.12-4.46-1.72-2.17-1.05-3.29-2.03-3.29-4.63,0-3.08,2.31-4.94,6.59-4.94,1.98-.04,3.93.4,5.7,1.29l-1.17,2.58c-1.38-.75-2.93-1.14-4.5-1.12-2.22,0-3.13.76-3.13,1.91-.03.5.18.98.55,1.31.34.27.71.49,1.1.67,1.15.5,2.86,1.05,4.27,1.7,1.69.81,3.1,1.81,3.1,4.53,0,3.08-2.53,4.99-6.71,4.99-2.11,0-4.19-.49-6.08-1.41l1.29-2.61Z"/>
      <path id="_패스_6830" data-name="패스 6830" class="cls-1" d="m207.81,4.71h3.45v7.22h7.13v-7.22h3.46v17.3h-3.46v-7.31h-7.13v7.32h-3.45V4.71Z"/>
      <path id="_패스_6831" data-name="패스 6831" class="cls-1" d="m239.55,13.39c0,5.87-2.66,8.82-8.18,8.82s-7.54-3.5-7.54-8.99c0-5.9,2.62-8.8,8.13-8.8s7.58,3.43,7.58,8.97m-12.19.12c0,3.31.9,6.02,3.95,6.02,3.59,0,4.64-2.31,4.64-6.47,0-3.26-.86-6.02-3.95-6.02-3.45,0-4.63,2.35-4.63,6.47"/>
      <path id="_패스_6832" data-name="패스 6832" class="cls-1" d="m248.52,4.71h-6.49v17.3h3.46v-6.32h3.37c3.59-.04,5.68-2.16,5.73-5.63.04-3.56-2.01-5.35-6.06-5.35m-.25,8.31h-2.78v-5.63h2.68c1.46-.11,2.74.98,2.85,2.45,0,.06,0,.13,0,.19-.06,1.39-.51,3.05-2.75,3"/>
    </g>
  </g>
  <g id="_수정" data-name="수정">
    <g>
      <path class="cls-5" d="m13.3,26.6c7.35,0,13.3-5.96,13.3-13.3S20.65,0,13.3,0,0,5.95,0,13.3s5.96,13.3,13.3,13.3"/>
      <polygon class="cls-4" points="12.77 7.46 12.77 19.12 16.48 19.12 16.48 18.08 13.83 18.08 13.83 7.46 12.77 7.46"/>
      <path class="cls-4" d="m9.06,10.65c.88,0,1.6-.72,1.6-1.59s-.71-1.6-1.6-1.6-1.59.71-1.59,1.6.72,1.59,1.59,1.59"/>
      <path class="cls-4" d="m13.83,2.17c-.13,0-.4,0-.53,0C7.17,2.16,2.17,7.16,2.17,13.3c0,2.97,1.15,5.77,3.25,7.87,2.11,2.11,4.91,3.26,7.88,3.26s5.77-1.16,7.88-3.26c2.1-2.1,3.26-4.9,3.26-7.87v-.51h-.45s-7.5,0-7.5,0v1.03h6.89v.15c-.35,5.25-4.74,9.41-10.07,9.41-2.69,0-5.23-1.05-7.14-2.95-1.91-1.91-2.96-4.44-2.96-7.14s1.05-5.23,2.96-7.14c1.91-1.91,4.44-2.96,7.14-2.96.12,0,.41,0,.53,0v-1.04Z"/>
    </g>
  </g>
</svg>