<svg xmlns="http://www.w3.org/2000/svg" width="318.76367pt" height="375pt" viewBox="0 0 318.76366 375"><defs><clipPath id="a"><path d="M629.292 453.543h592.587V166.534H629.292Z"/></clipPath><clipPath id="d"><path d="M629.292 453.543h592.587V166.534H629.292Z"/></clipPath><clipPath id="g"><path d="M629.292 453.543h592.587V166.534H629.292Z"/></clipPath></defs><g clip-path="url(#a)" transform="translate(-1086.452 -583.405)"><clipPath id="b"><path d="M646.936-3.826c-.472.204-.423.547-.285.773.224.36.446.482.446.482 4.237-1.396 7.578-.417 9.916.744 2.539 1.259 4.428 3.573 4.428 3.573.183-.899.274-3.034-.578-4.248 0 0-.783-.485-2.049-1.127-1.507-.766-3.696-1.374-6.154-1.374-1.816 0-3.778.332-5.724 1.177"/></clipPath><g clip-path="url(#b)"><clipPath id="c"><path d="M648.44 6.868 663.982.871l-4.243-10.996-15.542 5.997z"/></clipPath></g></g><g clip-path="url(#d)" transform="translate(-1086.452 -583.405)"><clipPath id="e"><path d="M646.545-3.558c-.188.192-.386.513-.392 1.016-.013 1.248 2.583 1.618 2.967 6.429.142 1.789-.457 3.848-.806 4.785-.347.926-.852 2.583-.778 4.023.08 1.591 1.646 2.288 3.348 2.01 2.472-.403 2.186-.86 2.186-.86.356-1.224.758-6.8-.254-9.611-.763-2.116-1.922-4.17-5.56-6.715-.658-.461-.735-.826-.605-1.077z"/></clipPath><g clip-path="url(#e)"><clipPath id="f"><path d="m654.475 14.961-.656-18.787-8.325.291.656 18.786z"/></clipPath></g></g><g clip-path="url(#g)" transform="translate(-1086.452 -583.405)"><clipPath id="h"><path d="M659.949-2.932c.818.736 2.318 2.749.997 6.948-1.084 3.437-4.309 7.128-6.759 8.858-2.767 1.956-4.656 1.749-5.455 1.506v.126c1.937 1.275 4.868 2.036 9.076-.212 5.072-2.708 7.646-7.638 6.907-11.637-.281-1.518-1.708-4.037-4.539-5.589z"/></clipPath><g clip-path="url(#h)"><clipPath id="i"><path d="m651.285-8.947-9.558 22.516 21.174 8.987L672.458.041z"/></clipPath></g></g><path fill="#fff" d="M168.528 0C126.286 0 83.194 16.662 50 49.666c-64.062 63.703-66.952 164.131-6.442 224.301 10.277 10.24 21.782 18.609 34.062 25.183A455.521 455.521 0 0 0 60.05 375h31.87c3.666-21.877 7.69-43.186 14.396-63.873 14.112 4.08 28.848 6.102 43.696 6.102 42.355 0 85.693-16.53 118.848-49.496 55.107-54.824 65.932-141.215 25.674-202.103h-45.038c-70.787 48.76-126.63 119.716-159.88 200.592-7.708-5.309-15.076-11.316-22.009-18.174-56.618-56.335-62.116-140.27-10.636-191.43 23.18-23.066 51.234-33.759 80.29-33.759 22.689 0 45.963 6.48 68.047 18.703l38.974-21.896C221.122 6.536 194.995 0 168.528 0m9.37 294.521c-20.214 0-40.977-4.44-60.737-12.827l-.191-.076c30.888-76.51 80.78-145.182 147.242-191.448 39.71 55.296 42.034 125.649-2.475 170.63-22.878 23.104-52.764 33.721-83.974 33.721" style="fill:#084f51;fill-opacity:1;stroke-width:18.8916"/></svg>